<?xml version="1.0" encoding="UTF-8"?>
<svg id="Capa_1" data-name="Capa 1" xmlns="http://www.w3.org/2000/svg" viewBox="0 0 529.44 529.53">
  <defs>
    <style>
      .cls-1 {
        fill: #1d1d1b;
      }

      .cls-2 {
        fill: #d8d8d8;
      }

      .cls-3 {
        fill: #fff;
      }

      .cls-4 {
        fill: #005d9b;
      }

      .cls-5 {
        fill: #e53b11;
      }

      .cls-6 {
        fill: #ededed;
      }
    </style>
  </defs>
  <polygon class="cls-2" points="529.44 12.31 468.64 73.25 467.95 501.15 468.05 524.37 529.44 463.34 529.44 12.31"/>
  <polygon class="cls-2" points="8.38 60.19 68.22 0 522.39 0 522.25 .14 461.22 61.54 8.38 60.19"/>
  <g>
    <rect class="cls-5" x=".33" y="59.71" width="469.82" height="469.82" rx="12" ry="12"/>
    <g>
      <g>
        <path class="cls-1" d="M389.64,343.41s-.77,1.01-2.22,2.9c-1.36,1.85-3.95,4.72-7.13,7.92-3.21,3.22-7.27,6.95-12.18,10.89-4.86,4.02-10.62,8.19-17.19,12.27-6.51,4.19-13.85,8.25-21.77,12.26-8.01,3.8-16.55,7.7-25.77,10.76-9.14,3.27-18.91,5.8-28.97,7.68-5.07.8-10.16,1.7-15.37,1.99-2.65.14-5.07.61-7.92.48l-7.62-.08c-5.01.11-10.44-.72-15.61-1.06-5.17-.64-10.23-1.49-15.26-2.35-9.98-2.11-19.72-4.58-28.85-7.81-4.6-1.53-9.06-3.17-13.34-5.01-4.35-1.67-8.47-3.62-12.48-5.51-8.02-3.76-15.34-7.87-21.98-11.84-3.31-2-6.38-4.09-9.31-6.05-2.84-2.1-5.53-4.09-8.06-5.96-2.43-2.01-4.71-3.88-6.82-5.62-2.01-1.86-3.86-3.56-5.53-5.11-3.19-3.27-5.7-5.82-7.17-7.86-1.53-1.95-2.34-3-2.34-3l3.9-2.85s.77.94,2.22,2.7c1.35,1.82,3.82,4.2,6.91,7.24,1.63,1.44,3.44,3.04,5.41,4.78,2.07,1.63,4.32,3.4,6.71,5.28,2.5,1.76,5.16,3.63,7.96,5.61,2.91,1.83,5.9,3.84,9.14,5.77,6.5,3.82,13.67,7.76,21.52,11.37,3.93,1.81,7.95,3.68,12.2,5.28,4.19,1.76,8.55,3.33,13.03,4.78,8.91,3.08,18.38,5.4,28.06,7.37,4.87.79,9.8,1.58,14.74,2.16,4.98.26,9.81,1.05,14.94.9l7.62.02c2.37.1,4.94-.3,7.4-.42,4.98-.23,9.88-1.06,14.76-1.78,9.7-1.73,19.16-4.08,28.05-7.18,8.97-2.88,17.3-6.61,25.14-10.24,7.74-3.84,14.93-7.73,21.31-11.76,6.42-3.95,12.08-7.93,16.91-11.67,4.86-3.7,8.87-7.2,12.02-10.21,3.16-3.05,5.35-5.32,6.87-7.25,1.5-1.85,2.3-2.84,2.3-2.84l3.77,3.03Z"/>
        <path class="cls-1" d="M216.54,438.25s.92.18,2.47.58c.77.21,1.72.45,2.77.8,1.05.39,2.26.65,3.52.88,1.27.25,2.62.52,3.98.89,1.4.3,2.99.35,4.52.67.78.13,1.56.26,2.36.39.81.03,1.64.05,2.46.14,1.65.08,3.3.39,4.98.3,3.36.05,6.71.04,9.88-.27,1.59-.12,3.15-.11,4.61-.39,1.46-.22,2.87-.35,4.19-.47,2.62-.28,4.78-.77,6.39-.9,1.59-.18,2.54-.23,2.54-.23,0,0-.71.58-2.04,1.5-.67.45-1.48,1.02-2.44,1.6-.97.58-2.03,1.35-3.33,1.81-2.55,1.04-5.55,2.49-9.02,3.05-1.72.28-3.49.87-5.34.93-1.85.07-3.74.15-5.62.22-1.88,0-3.76-.4-5.6-.59-1.86-.14-3.63-.65-5.31-1.21-3.4-.89-6.45-2.4-8.88-3.89-2.56-1.27-4-3.02-5.27-4.03-1.18-1.09-1.83-1.77-1.83-1.77Z"/>
        <path class="cls-1" d="M373.7,329.31c5.87,3.75,9.99,8.02,13.6,13.94,1.93,3.17,2.35,6.82,2.22,10.44-.11,3.15-1.04,4.27,1.16,6.71.4.45,1.22.69,1.79.47,7-2.65,3.67-14.57,1.43-19.73-3.26-7.52-11.95-11.64-19.2-14.24-1.46-.52-2.22,1.63-1.01,2.41Z"/>
        <path class="cls-1" d="M111.7,326.9c-7.66,2.75-15.31,6.77-19.2,14.24-2.6,4.99-5.3,17.18,1.43,19.73.58.22,1.39-.03,1.79-.47,1.15-1.28,1.86-2.28,1.55-4.07-.71-4.05-.51-7.93,1.14-11.73,2.86-6.6,8.38-11.51,14.3-15.29,1.21-.77.45-2.93-1.01-2.41Z"/>
      </g>
      <g>
        <path class="cls-1" d="M170.35,131.08c-21.75,1.57-42.81,11.54-57.92,27.25-1.61,1.68-4.37-.22-3.4-2.33,5.79-12.55,16.82-26.4,26.96-30.67,11.34-4.78,24.06-3.05,35.01,2.54,1.51.77,1.05,3.09-.64,3.21Z"/>
        <g>
          <path class="cls-3" d="M218.28,200.63c-13.16-17.66-34.43-27.92-55.41-26.73-20.98,1.19-41.14,13.8-52.5,32.85-13.25,22.21-13.8,52.49-1.37,75.25,12.43,22.75,37.26,36.92,61.71,35.2,24.45-1.72,47.36-19.24,56.95-43.55,9.37-23.75,5.63-52.91-9.37-73.03Z"/>
          <path class="cls-1" d="M216.41,202.21s-1.14-1.25-3.29-3.6c-1.07-1.18-2.37-2.7-4.06-3.99-1.73-1.33-3.35-3.16-5.83-4.62-4.58-3.33-10.72-6.49-18.08-8.96-7.46-2.09-16.15-3.54-25.52-2.45-1.26.13-2.54.27-3.83.4-1.19.23-2.28.55-3.45.82-1.16.27-2.33.55-3.51.83-1.18.44-2.38.88-3.58,1.32-1.21.45-2.42.91-3.65,1.37-1.16.61-2.34,1.22-3.52,1.84-2.44,1.12-4.69,2.63-6.95,4.23-9.04,6.38-17.04,15.17-22.19,26.62-5,10.8-7.48,23.88-6.61,36.84.94,12.94,4.73,26.23,13.06,36.95,7.95,10.52,19.26,18.82,31.65,23.09,12.39,4.4,26,4.52,37.81.28,11.78-4.03,21.84-11.51,29.17-20.18l2.76-3.23c.81-1.14,1.53-2.35,2.29-3.5,1.46-2.35,3.12-4.53,4.1-7.05,1.05-2.42,2.4-4.84,3.15-7.12.77-2.53,1.53-5.01,2.27-7.44,2.07-9.57,2.51-18.77,1.5-26.77-.36-4-1.42-7.65-2.01-11.06-1.11-3.29-2.12-6.31-3.04-9.03-1.24-2.59-2.35-4.9-3.31-6.9-.91-2.03-2.13-3.51-2.89-4.84-1.66-2.57-2.55-3.95-2.55-3.95l.09.12ZM220.24,199.17s.92,1.5,2.64,4.3c.82,1.42,2.15,3,3.13,5.17,1,2.16,2.16,4.63,3.45,7.41,1.01,2.88,1.99,6.12,3.12,9.63.61,3.62,1.66,7.5,2.01,11.73.95,8.46.45,18.12-1.97,28.51-.77,2.42-1.55,4.9-2.35,7.42-.97,2.82-2.31,5.08-3.49,7.72-1.08,2.64-2.84,4.95-4.42,7.41-.82,1.21-1.59,2.47-2.47,3.67l-2.95,3.38c-7.88,9.08-18.4,16.79-31.1,20.98-12.41,4.31-26.88,4.03-39.79-.74-13.05-4.64-24.32-13.34-32.99-24.43-8.29-10.88-13.68-24.42-15.16-38.06-1.52-13.72-.23-27.45,4.85-40.37,4.62-12.18,13.23-23.17,23.08-30.75,2.5-1.91,5.02-3.71,7.76-5.11,1.34-.75,2.66-1.5,3.98-2.24,1.39-.59,2.78-1.17,4.15-1.75,1.38-.56,2.72-1.16,4.12-1.67,1.48-.41,2.95-.81,4.4-1.22,1.45-.38,2.94-.81,4.32-1.11,1.28-.18,2.56-.36,3.82-.54,1.26-.18,2.5-.35,3.74-.53.83-.07.3-.02.52-.03.39,0,.9.02.9.02l1.02.02,2.02.05c2.68.04,5.29.12,7.78.64,2.49.48,4.98.61,7.24,1.43,2.27.77,4.48,1.46,6.56,2.26,8.23,3.54,14.59,7.98,19.22,12.2,2.46,1.88,4.3,4.22,6.03,5.92,1.8,1.75,2.88,3.35,3.83,4.63,1.9,2.56,2.91,3.92,2.91,3.92l.09.12Z"/>
        </g>
        <path class="cls-6" d="M226.09,272.4c2.27-5.89,3.66-11.94,4.36-18.28-.73,3-2.27,6.89-3.38,9.76-9.54,24.77-32.35,42.63-56.68,44.38-24.33,1.75-49.05-12.69-61.43-35.88-2.94-5.51-5.05-11.49-6.53-17.66,1.04,9.51,3.03,18.41,7.44,26.68,12.02,22.53,36.75,36.92,60.39,35.22,23.64-1.7,46.55-20.16,55.82-44.22Z"/>
        <path class="cls-1" d="M205.26,260.61c0,14.68-11.9,26.58-26.58,26.58s-26.58-11.9-26.58-26.58,11.9-26.58,26.58-26.58,26.58,11.9,26.58,26.58Z"/>
        <path class="cls-3" d="M179.48,250.91c0,4.85-3.93,8.77-8.77,8.77s-8.77-3.93-8.77-8.77,3.93-8.77,8.77-8.77,8.77,3.93,8.77,8.77Z"/>
        <path class="cls-1" d="M316.06,131.08c21.75,1.57,42.81,11.54,57.92,27.25,1.61,1.68,4.37-.22,3.4-2.33-5.79-12.55-16.82-26.4-26.96-30.67-11.34-4.78-24.06-3.05-35,2.54-1.51.77-1.05,3.09.64,3.21Z"/>
        <g>
          <path class="cls-3" d="M268.13,200.63c13.16-17.66,34.43-27.92,55.41-26.73,20.98,1.19,41.14,13.8,52.5,32.85,13.25,22.21,13.8,52.49,1.37,75.25-12.43,22.75-37.26,36.92-61.71,35.2-24.45-1.72-47.36-19.24-56.95-43.55-9.37-23.75-5.63-52.91,9.37-73.03Z"/>
          <path class="cls-1" d="M266.16,199.18c.1-.13,1.14-1.46,3.1-3.97.98-1.25,2.1-2.82,3.93-4.52,1.77-1.65,3.61-3.94,6.13-5.72,4.74-4.02,11.21-8.1,19.34-11.4,8.18-3.09,18.31-4.8,29.15-3.41,1.26.18,2.53.36,3.81.55,1.35.3,2.77.72,4.17,1.09,1.4.39,2.81.79,4.24,1.18,1.35.5,2.66,1.09,4.01,1.64,1.34.57,2.69,1.14,4.04,1.71,1.28.73,2.57,1.46,3.87,2.2,2.67,1.37,5.13,3.14,7.56,5.01,9.7,7.32,18.32,17.81,23.11,29.84,5.09,12.54,6.8,26.19,5.26,39.81-1.47,13.57-6.76,26.97-15.02,37.83-8.49,11.06-20.07,19.32-32.91,23.66-12.82,4.39-26.78,4.36-39.02.45-12.39-3.93-22.9-11.41-30.76-20.28l-2.95-3.31c-.87-1.17-1.65-2.41-2.47-3.6-1.58-2.41-3.36-4.67-4.45-7.27-1.19-2.58-2.57-4.85-3.53-7.57-.83-2.51-1.64-4.98-2.44-7.39-2.5-10.24-3.13-19.87-2.27-28.3.29-4.23,1.3-8.1,1.87-11.73,1.09-3.51,2.03-6.76,3.01-9.65,1.26-2.79,2.39-5.28,3.37-7.45.97-2.18,2.3-3.76,3.12-5.18,1.76-2.77,2.7-4.25,2.7-4.25ZM270.04,202.16c-.18.26-1.05,1.56-2.58,3.83-.76,1.33-1.98,2.81-2.88,4.85-.94,2.02-2.02,4.34-3.23,6.95-.88,2.73-1.86,5.76-2.93,9.06-.55,3.42-1.56,7.06-1.87,11.06-.91,7.98-.35,17.14,1.8,26.56.77,2.42,1.56,4.89,2.36,7.41.74,2.18,2.13,4.61,3.19,6.97.99,2.47,2.66,4.61,4.13,6.91.76,1.13,1.49,2.31,2.3,3.43l2.76,3.15c7.31,8.46,17.36,15.7,28.83,19.48,11.65,3.85,24.76,4.04,37.05.02,12.19-3.97,23.81-11.83,31.58-22.32,8.31-10.69,12-23.86,12.92-36.71.89-12.86-2.01-25.86-7.02-36.29-5.32-11.3-13.33-19.59-22.23-25.71-2.19-1.56-4.38-3.04-6.75-4.13-1.15-.61-2.29-1.21-3.42-1.8-1.19-.45-2.37-.9-3.54-1.34-1.17-.44-2.32-.87-3.47-1.3-1.13-.27-2.24-.53-3.35-.8-1.12-.26-2.15-.58-3.3-.81-1.29-.14-2.57-.28-3.83-.41-1.26-.14-2.53-.25-3.76-.39.75.07.16,0,.3.02-.3-.02-.73,0-.73,0h-.83s-1.65-.02-1.65-.02c-2.19-.06-4.34-.1-6.42.27-4.19.36-8.07,1.37-11.82,2.12-7.27,2.23-13.51,5.03-18.2,8.16-2.54,1.36-4.16,3.14-5.93,4.42-1.72,1.24-3.07,2.74-4.16,3.89-2,2.08-3.14,3.27-3.33,3.47Z"/>
        </g>
        <path class="cls-1" d="M334.32,260.61c0,14.68-11.9,26.58-26.58,26.58s-26.58-11.9-26.58-26.58,11.9-26.58,26.58-26.58,26.58,11.9,26.58,26.58Z"/>
        <path class="cls-3" d="M308.54,250.91c0,4.85-3.93,8.77-8.77,8.77s-8.77-3.93-8.77-8.77,3.93-8.77,8.77-8.77,8.77,3.93,8.77,8.77Z"/>
        <path class="cls-6" d="M261.47,273.01c-2.25-5.73-3.71-11.79-4.41-17.96.73,2.92,1.59,5.79,2.68,8.58,9.46,24.12,32.07,41.51,56.2,43.21,24.13,1.71,48.63-12.35,60.9-34.93,2.92-5.37,5.01-11.19,6.47-17.19-1.04,9.26-3.36,19.45-7.73,27.49-11.92,21.94-36.08,34.43-59.52,32.77-23.44-1.66-45.41-18.55-54.59-41.98Z"/>
      </g>
    </g>
  </g>
  <path class="cls-4" d="M35,529.79H13.17c-7.24,0-13.17-5.74-13.17-12.76V72.51c0-7.02,5.93-12.76,13.17-12.76h21.84"/>
</svg>