<?xml version="1.0" encoding="UTF-8"?>
<svg id="Capa_1" data-name="Capa 1" xmlns="http://www.w3.org/2000/svg" viewBox="0 0 1930.87 541.99">
  <defs>
    <style>
      .cls-1 {
        fill: #fabf75;
      }

      .cls-2 {
        fill: #e3e3e2;
      }

      .cls-3 {
        fill: #af2600;
      }

      .cls-4 {
        fill: #dcaa69;
      }

      .cls-5 {
        fill: #1575b8;
      }

      .cls-6 {
        fill: #1d1d1b;
      }

      .cls-7 {
        fill: #104379;
      }

      .cls-8 {
        fill: #fff;
      }

      .cls-9 {
        fill: #edb670;
      }

      .cls-10 {
        fill: #005d9b;
      }

      .cls-11 {
        fill: #e53b11;
      }

      .cls-12 {
        fill: #ededed;
      }
    </style>
  </defs>
  <g>
    <path class="cls-10" d="M961.52,6.19h53.67v90.82h104.24V6.19h53.67v243.57h-53.67v-105.27h-104.24v105.27h-53.67V6.19Z"/>
    <path class="cls-10" d="M1224.69,6.19h165.48v49.54h-111.81v45.41h105.62v49.54h-105.62v49.54h118v49.54h-171.67V6.19Z"/>
    <path class="cls-10" d="M1439.36,6.19h94.26c12.38,0,24.14,1.2,35.26,3.61,11.12,2.41,20.87,6.43,29.24,12.04,8.37,5.62,15.02,13.19,19.95,22.71,4.93,9.52,7.4,21.39,7.4,35.61,0,17.2-4.47,31.82-13.42,43.86s-22.02,19.67-39.22,22.88l61.92,102.86h-64.33l-50.92-97.36h-26.49v97.36h-53.67V6.19ZM1493.03,106.99h31.65c4.82,0,9.92-.17,15.31-.52,5.38-.35,10.26-1.38,14.62-3.1,4.35-1.72,7.97-4.41,10.83-8.08,2.87-3.67,4.3-8.83,4.3-15.48,0-6.19-1.26-11.12-3.78-14.79-2.53-3.67-5.74-6.48-9.63-8.43-3.9-1.95-8.38-3.27-13.42-3.95-5.05-.69-9.98-1.03-14.79-1.03h-35.09v55.39Z"/>
    <path class="cls-10" d="M1649.21,127.98c0-19.49,3.27-37.16,9.8-52.98s15.65-29.29,27.35-40.42c11.7-11.12,25.57-19.66,41.63-25.63,16.05-5.96,33.6-8.94,52.64-8.94s36.58,2.98,52.63,8.94c16.05,5.97,29.93,14.51,41.63,25.63,11.7,11.13,20.81,24.6,27.35,40.42,6.54,15.83,9.81,33.49,9.81,52.98s-3.27,37.15-9.81,52.98c-6.53,15.83-15.65,29.3-27.35,40.42-11.7,11.13-25.58,19.67-41.63,25.63-16.06,5.96-33.6,8.94-52.63,8.94s-36.58-2.98-52.64-8.94c-16.06-5.96-29.93-14.5-41.63-25.63-11.7-11.12-20.81-24.6-27.35-40.42s-9.8-33.48-9.8-52.98ZM1704.94,127.98c0,11.47,1.78,21.96,5.33,31.48,3.55,9.52,8.65,17.78,15.31,24.77,6.65,7,14.62,12.44,23.91,16.34,9.29,3.9,19.66,5.85,31.13,5.85s21.84-1.95,31.13-5.85c9.29-3.9,17.26-9.34,23.91-16.34,6.65-6.99,11.75-15.25,15.31-24.77,3.55-9.51,5.33-20.01,5.33-31.48s-1.78-21.67-5.33-31.31c-3.56-9.63-8.66-17.94-15.31-24.94-6.66-6.99-14.62-12.44-23.91-16.34-9.29-3.9-19.67-5.85-31.13-5.85s-21.85,1.95-31.13,5.85c-9.29,3.9-17.26,9.35-23.91,16.34-6.66,7-11.76,15.31-15.31,24.94-3.56,9.63-5.33,20.07-5.33,31.31Z"/>
  </g>
  <g>
    <path class="cls-10" d="M960.03,292.23h58.49l38.87,156.19h.69l50.92-156.19h49.88l50.57,160.32h.69l40.94-160.32h54.36l-71.21,243.57h-47.82l-53.67-168.57h-.69l-53.67,168.57h-46.1l-72.25-243.57Z"/>
    <path class="cls-10" d="M1401.07,292.23h44.38l105.96,243.57h-60.55l-20.99-51.6h-94.61l-20.3,51.6h-59.17l105.27-243.57ZM1421.71,363.1l-29.59,75.68h59.52l-29.93-75.68Z"/>
    <path class="cls-10" d="M1610.24,431.9l-91.51-139.67h66.74l51.61,91.17,54.7-91.17h63.65l-91.51,139.67v103.9h-53.67v-103.9Z"/>
    <path class="cls-10" d="M1893.72,351.75c-4.36-5.5-10.27-9.57-17.72-12.21-7.45-2.63-14.51-3.95-21.16-3.95-3.9,0-7.91.46-12.04,1.37-4.13.92-8.03,2.36-11.7,4.3-3.67,1.95-6.65,4.53-8.94,7.74-2.3,3.21-3.44,7.11-3.44,11.7,0,7.34,2.75,12.96,8.26,16.86,5.5,3.9,12.44,7.23,20.81,9.98,8.37,2.75,17.37,5.51,27.01,8.26,9.63,2.75,18.63,6.66,27.01,11.7,8.37,5.05,15.31,11.81,20.81,20.3,5.5,8.49,8.26,19.84,8.26,34.06s-2.53,25.34-7.57,35.43c-5.05,10.1-11.87,18.46-20.47,25.11-8.6,6.66-18.58,11.58-29.93,14.79-11.35,3.21-23.34,4.82-35.95,4.82-15.83,0-30.5-2.41-44.03-7.22-13.54-4.82-26.15-12.61-37.84-23.39l38.19-41.97c5.51,7.34,12.44,13.02,20.81,17.03,8.37,4.02,17.03,6.02,25.97,6.02,4.36,0,8.77-.52,13.24-1.55s8.48-2.58,12.04-4.65c3.55-2.06,6.42-4.7,8.6-7.91,2.18-3.21,3.27-6.99,3.27-11.35,0-7.34-2.81-13.13-8.43-17.37-5.62-4.24-12.68-7.85-21.16-10.84-8.49-2.98-17.66-5.96-27.52-8.94-9.86-2.98-19.04-6.99-27.52-12.04-8.49-5.04-15.54-11.7-21.16-19.95-5.62-8.26-8.43-19.15-8.43-32.68s2.58-24.54,7.74-34.4c5.16-9.86,12.04-18.11,20.64-24.77,8.6-6.65,18.52-11.64,29.76-14.96,11.24-3.32,22.82-4.99,34.75-4.99,13.76,0,27.06,1.95,39.91,5.85,12.84,3.9,24.43,10.44,34.75,19.61l-36.81,40.25Z"/>
  </g>
  <g>
    <path class="cls-7" d="M318.49,205.33s113.3,11.15,163.96,2.16c50.66-8.98,84.26-69.35,101.93-79.01,0,0-177.63,6.37-265.89,76.85Z"/>
    <path class="cls-2" d="M785.73,526.23c-29.43,7.45-76.74,7.92-137.94,7.15-28.22-.35-64.77.1-83.87-3.15-37.73-6.43-44.52-18.56-44.52-18.56,0,0-261.87,23.15-342.72-1.01-80.85-24.17-101.12-43.65-101.12-43.65,0,0,146.53,17.37,187.19-6.76,40.66-24.12,88.67-42.99,236.54.14,0,0,69.48,4.01,132.29,7.23,23.17,1.19,50.83,24.69,68.52,23.7,73.07-4.11,164.96,14.83,85.62,34.9Z"/>
    <path class="cls-10" d="M736.58,368.63l35.29,132.65s-10.46,8.77-.77,10.43c8.34,1.43,26.66,5.01,29.31,2.83,7.17-5.88-20.61-13.8-20.61-13.8,0,0-6.63-118.04-7.7-140.17-1.07-22.13-40.55-21.03-35.52,8.06Z"/>
    <path class="cls-10" d="M623.84,352.75l-24.92,150.42s-34.2,6.42-26.41,12.23c4.77,3.55,11.34,2.38,16.95,1.63,7.43-.99,14.19-1.99,22.38-6.48,5.14-2.82-3.88-7.84-3.88-7.84,0,0,44.83-114.67,48.97-128.86,4.13-14.19-25-44.26-33.09-21.09Z"/>
    <path class="cls-7" d="M619.84,377.23l-3.05,17.51s6.71,9.99,32,2.29l8.13-23.19-37.09,3.39Z"/>
    <path class="cls-7" d="M737.45,371.71l5.49,21.26s22.67,5.62,30.61-2.5l-.73-21.86-35.37,3.1Z"/>
    <path class="cls-1" d="M837.4,260.99s39.16-51.09,34.94-68.79c-2.03-8.52-28.69-39.34-28.69-39.34l-6.24,108.12Z"/>
    <path class="cls-1" d="M816.24,301.37s50.77,33.76,43.24,5.34c-7.52-28.42-35.81-30.91-35.81-30.91l-7.43,25.57Z"/>
    <path class="cls-5" d="M865.01,118.97c40.61-34.45-176.45-153.53-286.84-99.38-110.39,54.15-144.2,14.41-210.73,2.07,0,0,295.59,247.98,483.86,125.19,7.58-4.95,6.44-21.72,13.71-27.88Z"/>
    <g>
      <path class="cls-3" d="M566.14,17.59s235.32-12.98,243.63-12.66c8.31.32,11.09,9.91,11.09,9.91l1.29,21.09-251.18,19.72-4.84-38.06Z"/>
      <polygon class="cls-8" points="841.34 29.32 803 14.15 570.01 26.16 580.71 48.67 841.34 29.32"/>
      <path class="cls-11" d="M579.19,386.35l238.33-13.91s23.03,3,23.76-15.91c.73-18.91,16.71-322.36,16.71-322.36,0,0,1.5-11.51-11.29-10.85-49.83,2.59-233.79,19.46-251.85,13.27-20.77-7.12-28.72-19-28.72-19l-13.61,350.89s5.57,19.16,26.66,17.87Z"/>
      <path class="cls-3" d="M595.46,48.19s-16.73-2.75-29.2-15.86l-12.71,327.78s10.33,14.08,24.03,13.56l17.88-325.47Z"/>
    </g>
    <path class="cls-9" d="M540.76,161.36l-88.2,93.81s-16.65,24.87,8.95,29.31c18.67,3.24,87.87,14.82,87.87,14.82,0,0-27.42,9.9-26.47,28.45.96,18.55,36.09,15.92,40.97-34.87l-62.5-29.05s49.7-32.29,71.19-54.62c12.55-13.03,25.85-84.29-31.81-47.86Z"/>
    <path class="cls-4" d="M520.12,183.64s7.92-9.06,29.25-6.97c21.34,2.09,27.67,17.95,26.1,28.64,0,0,21.25-36.05,3.69-53.74-11.1-11.18-33.76,3.86-33.76,3.86l-25.28,28.22Z"/>
    <path class="cls-10" d="M585.73,176.64s-1.36-20.96-40.7-19.34c-82.89,3.42-186.97,77.01-247.83,157.42-54.56,72.08-198.2,53.58-297.19-47.56,0,0,102.89,21.97,139.32-69.48,36.42-91.45,76.76-83.03,118.55-88.67,41.79-5.64,32.35-93.29-13.45-62.49,0,0,59.81-56.36,143.84-30.65,84.04,25.71,121.36,47.17,166.5,50.4l-7.94,13.09s-19.28,14.31,17.15,33.56c26.73,14.12,21.75,63.73,21.75,63.73Z"/>
    <path class="cls-5" d="M475.32,112.33s-151.7-8.05-188.41,8.05c0,0,43.33-34.37,7.24-70.31,0,0,39.21,43.74,94.79,36.3,46.14-6.18,86.38,25.96,86.38,25.96Z"/>
    <path class="cls-5" d="M34.65,278.56s71.76,70.25,163.7,55.76c32.45-5.12,29.95-37.53,62.94-70.63,34.78-34.89,104.65-70.7,122.35-82,0,0-192.15,96.82-236.65,46.9,0,0-27.54,55.01-112.34,49.97Z"/>
    <path class="cls-2" d="M595.92,30.68s109.35-11.54,204.86-12.31c0,0-133.15,8.25-204.86,12.31Z"/>
    <path class="cls-2" d="M809.18,22.17s-64.99,1.8-208.14,12.21c0,0,42.99-.61,208.14-12.21Z"/>
    <g>
      <g>
        <path class="cls-6" d="M782.91,161.3s-.32.41-.91,1.18c-.56.75-1.61,1.93-2.91,3.23-1.31,1.31-2.97,2.83-4.97,4.44-1.98,1.64-4.33,3.34-7.01,5-2.65,1.71-5.65,3.36-8.87,5-3.27,1.55-6.75,3.14-10.51,4.39-3.73,1.33-7.71,2.36-11.81,3.13-2.07.33-4.14.69-6.27.81-1.08.06-2.07.25-3.23.19l-3.11-.03c-2.04.04-4.26-.29-6.36-.43-2.11-.26-4.17-.61-6.22-.96-4.07-.86-8.04-1.87-11.76-3.19-1.87-.62-3.69-1.29-5.44-2.04-1.77-.68-3.45-1.48-5.09-2.25-3.27-1.53-6.25-3.21-8.96-4.83-1.35-.82-2.6-1.67-3.8-2.47-1.16-.86-2.26-1.67-3.29-2.43-.99-.82-1.92-1.58-2.78-2.29-.82-.76-1.57-1.45-2.25-2.08-1.3-1.33-2.32-2.37-2.92-3.2-.62-.8-.96-1.22-.96-1.22l1.59-1.16s.32.38.91,1.1c.55.74,1.56,1.71,2.82,2.95.67.59,1.4,1.24,2.21,1.95.85.67,1.76,1.38,2.74,2.15,1.02.72,2.1,1.48,3.25,2.29,1.19.74,2.41,1.57,3.73,2.35,2.65,1.56,5.57,3.17,8.78,4.64,1.6.74,3.24,1.5,4.98,2.15,1.71.72,3.48,1.36,5.31,1.95,3.63,1.26,7.49,2.2,11.44,3.01,1.98.32,4,.65,6.01.88,2.03.11,4,.43,6.09.37h3.11c.97.05,2.02-.11,3.02-.16,2.03-.09,4.03-.43,6.02-.73,3.96-.71,7.81-1.67,11.44-2.93,3.66-1.17,7.05-2.7,10.25-4.17,3.16-1.56,6.09-3.15,8.69-4.79,2.62-1.61,4.93-3.23,6.89-4.76,1.98-1.51,3.62-2.94,4.9-4.16,1.29-1.24,2.18-2.17,2.8-2.96.61-.75.94-1.16.94-1.16l1.54,1.23Z"/>
        <path class="cls-6" d="M712.34,199.97s.37.07,1.01.24c.31.09.7.18,1.13.32.43.16.92.27,1.44.36.52.1,1.07.21,1.62.36.57.12,1.22.14,1.84.27.32.05.64.11.96.16.33.01.67.02,1,.06.67.03,1.35.16,2.03.12,1.37.02,2.73.01,4.03-.11.65-.05,1.29-.05,1.88-.16.59-.09,1.17-.14,1.71-.19,1.07-.12,1.95-.31,2.6-.37.65-.07,1.04-.09,1.04-.09,0,0-.29.24-.83.61-.27.18-.6.42-1,.65-.39.23-.83.55-1.36.74-1.04.42-2.26,1.02-3.68,1.24-.7.12-1.42.36-2.18.38-.76.03-1.52.06-2.29.09-.77,0-1.53-.16-2.28-.24-.76-.06-1.48-.27-2.17-.49-1.39-.36-2.63-.98-3.62-1.59-1.04-.52-1.63-1.23-2.15-1.64-.48-.44-.74-.72-.74-.72Z"/>
        <path class="cls-6" d="M776.41,155.56c2.39,1.53,4.07,3.27,5.54,5.68.79,1.29.96,2.78.91,4.26-.05,1.28-.42,1.74.47,2.73.16.18.5.28.73.19,2.85-1.08,1.5-5.94.58-8.04-1.33-3.07-4.87-4.75-7.83-5.81-.6-.21-.91.67-.41.98Z"/>
        <path class="cls-6" d="M669.59,154.58c-3.12,1.12-6.24,2.76-7.83,5.81-1.06,2.04-2.16,7,.58,8.04.23.09.57-.01.73-.19.47-.52.76-.93.63-1.66-.29-1.65-.21-3.23.46-4.78,1.17-2.69,3.42-4.69,5.83-6.23.49-.31.18-1.19-.41-.98Z"/>
      </g>
      <g>
        <path class="cls-6" d="M693.51,74.74c-8.87.64-17.45,4.71-23.62,11.11-.66.68-1.78-.09-1.39-.95,2.36-5.12,6.86-10.76,10.99-12.51,4.62-1.95,9.81-1.24,14.27,1.03.62.31.43,1.26-.26,1.31Z"/>
        <g>
          <path class="cls-8" d="M713.05,103.09c-5.37-7.2-14.04-11.38-22.59-10.9-8.55.49-16.77,5.63-21.41,13.4-5.4,9.06-5.63,21.4-.56,30.68,5.07,9.28,15.19,15.05,25.16,14.35,9.97-.7,19.31-7.85,23.22-17.75,3.82-9.68,2.29-21.57-3.82-29.78Z"/>
          <path class="cls-6" d="M712.29,103.74s-.47-.51-1.34-1.47c-.44-.48-.97-1.1-1.66-1.63-.71-.54-1.36-1.29-2.38-1.88-1.87-1.36-4.37-2.64-7.37-3.65-3.04-.85-6.58-1.44-10.4-1-.52.05-1.04.11-1.56.16-.48.09-.93.23-1.41.33-.47.11-.95.22-1.43.34-.48.18-.97.36-1.46.54-.49.18-.99.37-1.49.56-.47.25-.95.5-1.43.75-.99.46-1.91,1.07-2.83,1.72-3.69,2.6-6.95,6.18-9.05,10.85-2.04,4.4-3.05,9.74-2.69,15.02.38,5.28,1.93,10.69,5.33,15.06,3.24,4.29,7.85,7.67,12.9,9.41,5.05,1.79,10.6,1.84,15.42.11,4.8-1.64,8.9-4.69,11.89-8.23l1.13-1.32c.33-.47.62-.96.93-1.43.6-.96,1.27-1.85,1.67-2.87.43-.99.98-1.97,1.29-2.9.32-1.03.62-2.04.93-3.03.84-3.9,1.02-7.65.61-10.91-.15-1.63-.58-3.12-.82-4.51-.45-1.34-.87-2.57-1.24-3.68-.51-1.05-.96-2-1.35-2.82-.37-.83-.87-1.43-1.18-1.97-.68-1.05-1.04-1.61-1.04-1.61l.04.05ZM713.85,102.5s.37.61,1.08,1.75c.33.58.88,1.22,1.28,2.11.41.88.88,1.89,1.41,3.02.41,1.17.81,2.5,1.27,3.93.25,1.48.68,3.06.82,4.78.39,3.45.18,7.39-.8,11.62-.31.99-.63,2-.96,3.02-.39,1.15-.94,2.07-1.42,3.15-.44,1.08-1.16,2.02-1.8,3.02-.33.49-.65,1.01-1.01,1.5l-1.2,1.38c-3.21,3.7-7.5,6.84-12.68,8.55-5.06,1.76-10.96,1.64-16.22-.3-5.32-1.89-9.91-5.44-13.45-9.96-3.38-4.43-5.58-9.95-6.18-15.52-.62-5.59-.09-11.19,1.98-16.46,1.89-4.96,5.4-9.44,9.41-12.54,1.02-.78,2.05-1.51,3.16-2.08.54-.31,1.08-.61,1.62-.91.57-.24,1.13-.48,1.69-.71.56-.23,1.11-.47,1.68-.68.6-.17,1.2-.33,1.8-.5.59-.15,1.2-.33,1.76-.45.52-.07,1.04-.15,1.56-.22.51-.07,1.02-.14,1.52-.21.34-.03.12,0,.21-.01.16,0,.37,0,.37,0h.42s.82.03.82.03c1.09.02,2.15.05,3.17.26,1.01.19,2.03.25,2.95.58.92.32,1.83.6,2.67.92,3.35,1.44,5.95,3.25,7.84,4.97,1,.77,1.75,1.72,2.46,2.41.73.72,1.18,1.36,1.56,1.89.77,1.04,1.19,1.6,1.19,1.6l.04.05Z"/>
        </g>
        <path class="cls-12" d="M716.23,132.35c.92-2.4,1.49-4.87,1.78-7.45-.3,1.22-.93,2.81-1.38,3.98-3.89,10.1-13.19,17.38-23.11,18.1-9.92.71-20-5.17-25.04-14.63-1.2-2.25-2.06-4.68-2.66-7.2.43,3.88,1.24,7.51,3.03,10.88,4.9,9.19,14.98,15.05,24.62,14.36,9.64-.69,18.98-8.22,22.76-18.03Z"/>
        <path class="cls-6" d="M707.74,127.55c0,5.99-4.85,10.84-10.84,10.84s-10.84-4.85-10.84-10.84,4.85-10.84,10.84-10.84,10.84,4.85,10.84,10.84Z"/>
        <path class="cls-8" d="M697.23,123.59c0,1.98-1.6,3.58-3.58,3.58s-3.58-1.6-3.58-3.58,1.6-3.58,3.58-3.58,3.58,1.6,3.58,3.58Z"/>
        <path class="cls-6" d="M752.91,74.74c8.87.64,17.45,4.71,23.62,11.11.66.68,1.78-.09,1.39-.95-2.36-5.12-6.86-10.76-10.99-12.51-4.62-1.95-9.81-1.24-14.27,1.03-.62.31-.43,1.26.26,1.31Z"/>
        <g>
          <path class="cls-8" d="M733.37,103.09c5.37-7.2,14.04-11.38,22.59-10.9,8.55.49,16.77,5.63,21.41,13.4,5.4,9.06,5.63,21.4.56,30.68-5.07,9.28-15.19,15.05-25.16,14.35-9.97-.7-19.31-7.85-23.22-17.75-3.82-9.68-2.29-21.57,3.82-29.78Z"/>
          <path class="cls-6" d="M732.57,102.5c.04-.05.47-.6,1.26-1.62.4-.51.86-1.15,1.6-1.84.72-.67,1.47-1.61,2.5-2.33,1.93-1.64,4.57-3.3,7.89-4.65,3.33-1.26,7.46-1.96,11.89-1.39.51.07,1.03.15,1.55.22.55.12,1.13.3,1.7.45.57.16,1.15.32,1.73.48.55.21,1.09.45,1.63.67.55.23,1.09.46,1.65.7.52.3,1.05.6,1.58.9,1.09.56,2.09,1.28,3.08,2.04,3.95,2.99,7.47,7.26,9.42,12.17,2.08,5.11,2.77,10.68,2.14,16.23-.6,5.53-2.76,11-6.12,15.42-3.46,4.51-8.18,7.88-13.42,9.65-5.22,1.79-10.92,1.78-15.91.18-5.05-1.6-9.33-4.65-12.54-8.27l-1.2-1.35c-.36-.48-.67-.98-1.01-1.47-.65-.98-1.37-1.91-1.81-2.97-.48-1.05-1.05-1.98-1.44-3.09-.34-1.02-.67-2.03-.99-3.01-1.02-4.17-1.27-8.1-.92-11.54.12-1.72.53-3.3.76-4.78.44-1.43.83-2.76,1.23-3.94.51-1.14.97-2.15,1.37-3.04.39-.89.94-1.53,1.27-2.11.72-1.13,1.1-1.73,1.1-1.73ZM734.15,103.72c-.07.11-.43.64-1.05,1.56-.31.54-.81,1.15-1.17,1.98-.38.82-.82,1.77-1.32,2.83-.36,1.11-.76,2.35-1.19,3.69-.23,1.39-.64,2.88-.76,4.51-.37,3.25-.14,6.99.73,10.83.31.99.64,2,.96,3.02.3.89.87,1.88,1.3,2.84.4,1.01,1.09,1.88,1.68,2.82.31.46.61.94.94,1.4l1.13,1.29c2.98,3.45,7.08,6.4,11.76,7.94,4.75,1.57,10.09,1.65,15.11,0,4.97-1.62,9.71-4.82,12.87-9.1,3.39-4.36,4.89-9.73,5.27-14.97.36-5.24-.82-10.54-2.86-14.79-2.17-4.61-5.44-7.99-9.06-10.48-.89-.64-1.79-1.24-2.75-1.68-.47-.25-.93-.49-1.39-.73-.49-.18-.97-.37-1.45-.55-.48-.18-.95-.35-1.42-.53-.46-.11-.91-.22-1.36-.32-.46-.11-.88-.23-1.35-.33-.53-.06-1.05-.11-1.56-.17-.52-.06-1.03-.1-1.53-.16.31.03.07,0,.12,0-.12,0-.3,0-.3,0h-.34s-.67,0-.67,0c-.89-.02-1.77-.04-2.62.11-1.71.15-3.29.56-4.82.86-2.96.91-5.51,2.05-7.42,3.33-1.04.55-1.69,1.28-2.42,1.8-.7.5-1.25,1.12-1.7,1.59-.82.85-1.28,1.33-1.36,1.42Z"/>
        </g>
        <path class="cls-6" d="M760.36,127.55c0,5.99-4.85,10.84-10.84,10.84s-10.84-4.85-10.84-10.84,4.85-10.84,10.84-10.84,10.84,4.85,10.84,10.84Z"/>
        <path class="cls-8" d="M749.85,123.59c0,1.98-1.6,3.58-3.58,3.58s-3.58-1.6-3.58-3.58,1.6-3.58,3.58-3.58,3.58,1.6,3.58,3.58Z"/>
        <path class="cls-12" d="M730.66,132.6c-.92-2.34-1.51-4.81-1.8-7.32.3,1.19.65,2.36,1.09,3.5,3.86,9.83,13.08,16.92,22.91,17.62,9.84.7,19.83-5.04,24.83-14.24,1.19-2.19,2.04-4.56,2.64-7.01-.42,3.77-1.37,7.93-3.15,11.21-4.86,8.94-14.71,14.04-24.26,13.36-9.55-.68-18.51-7.56-22.26-17.11Z"/>
      </g>
    </g>
  </g>
</svg>