<?xml version="1.0" encoding="UTF-8"?>
<svg id="Ebene_1" data-name="Ebene 1" xmlns="http://www.w3.org/2000/svg" viewBox="0 0 1729.42 480.3">
  <defs>
    <style>
      .cls-1 {
        fill: #098;
      }

      .cls-2 {
        fill: #059988;
      }

      .cls-3 {
        fill: #0177bc;
      }
    </style>
  </defs>
  <g>
    <path class="cls-3" d="M498.17,0h81.7c11.39,0,22.16,1.04,32.3,3.11,10.14,2.07,19,5.65,26.55,10.72,7.56,5.07,13.56,11.91,18.02,20.5,4.45,8.59,6.67,19.41,6.67,32.46s-2.07,23.61-6.22,32.3c-4.15,8.7-9.83,15.63-17.07,20.82-7.25,5.17-15.85,8.85-25.78,11.02-9.95,2.17-20.71,3.26-32.3,3.26h-35.41v85.73h-48.46V0ZM546.62,93.18h32.3c4.35,0,8.54-.42,12.59-1.24,4.03-.83,7.66-2.22,10.87-4.2,3.21-1.97,5.79-4.66,7.76-8.08,1.97-3.41,2.96-7.71,2.96-12.89,0-5.59-1.3-10.1-3.89-13.51-2.59-3.41-5.9-6.05-9.93-7.92-4.04-1.86-8.54-3.05-13.51-3.56-4.97-.52-9.73-.78-14.29-.78h-24.85v52.18Z"/>
    <path class="cls-3" d="M693.85,0h85.11c11.19,0,21.79,1.09,31.84,3.26,10.05,2.17,18.84,5.8,26.4,10.87,7.56,5.08,13.56,11.92,18.02,20.5,4.45,8.59,6.67,19.31,6.67,32.15,0,15.53-4.03,28.73-12.11,39.6-8.08,10.88-19.88,17.77-35.41,20.66l55.91,92.87h-58.09l-45.97-87.9h-23.92v87.9h-48.46V0ZM742.31,91.01h28.58c4.35,0,8.96-.15,13.83-.47,4.87-.3,9.26-1.24,13.19-2.79,3.93-1.55,7.2-3.98,9.79-7.31,2.58-3.31,3.88-7.96,3.88-13.98,0-5.59-1.14-10.04-3.43-13.35-2.27-3.31-5.17-5.85-8.7-7.61-3.51-1.76-7.56-2.96-12.11-3.58-4.56-.62-9.01-.94-13.36-.94h-31.68v50.01Z"/>
    <path class="cls-3" d="M896.99,0h149.4v44.73h-100.94v41h95.36v44.73h-95.36v44.73h106.53v44.73h-154.99V0Z"/>
    <path class="cls-3" d="M1090.8,0h48.46v82h94.12V0h48.46v219.91h-48.46v-95.04h-94.12v95.04h-48.46V0Z"/>
    <path class="cls-3" d="M1398.93,0h40.06l95.66,219.91h-54.66l-18.95-46.59h-85.42l-18.33,46.59h-53.42L1398.93,0ZM1417.56,63.99l-26.71,68.34h53.73l-27.02-68.34Z"/>
    <path class="cls-3" d="M1556.71,0h82.01c9.52,0,19.1.68,28.73,2.02,9.63,1.35,18.28,4.03,25.93,8.08,7.66,4.03,13.86,9.68,18.63,16.92,4.76,7.25,7.15,16.89,7.15,28.89s-3.48,22.72-10.41,30.9c-6.94,8.19-16.1,14.03-27.49,17.55v.62c7.25,1.04,13.83,3.06,19.73,6.05,5.9,3.01,10.97,6.84,15.22,11.49,4.25,4.66,7.51,10.1,9.78,16.32,2.27,6.21,3.43,12.84,3.43,19.88,0,11.59-2.49,21.27-7.46,29.03-4.97,7.77-11.39,14.04-19.26,18.79-7.87,4.76-16.72,8.19-26.55,10.25-9.83,2.07-19.63,3.11-29.35,3.11h-90.09V0ZM1605.17,87.9h35.1c3.73,0,7.41-.4,11.03-1.24,3.61-.82,6.88-2.17,9.78-4.04,2.89-1.86,5.23-4.35,6.99-7.44,1.76-3.11,2.64-6.84,2.64-11.19s-.99-8.33-2.96-11.34c-1.97-3-4.5-5.33-7.61-6.99-3.1-1.66-6.62-2.84-10.55-3.58-3.94-.72-7.77-1.09-11.5-1.09h-32.92v46.9ZM1605.17,178.91h43.49c3.73,0,7.51-.42,11.34-1.24,3.83-.83,7.31-2.27,10.4-4.35,3.11-2.07,5.64-4.76,7.61-8.08,1.97-3.31,2.96-7.36,2.96-12.12,0-5.17-1.3-9.37-3.88-12.58-2.59-3.21-5.85-5.64-9.78-7.31-3.94-1.66-8.19-2.79-12.74-3.41-4.56-.62-8.81-.94-12.74-.94h-36.65v50.01Z"/>
  </g>
  <g>
    <path class="cls-1" d="M693.85,260.39h85.11c11.19,0,21.79,1.09,31.84,3.26,10.05,2.17,18.84,5.8,26.4,10.87,7.56,5.08,13.56,11.92,18.02,20.5,4.45,8.59,6.67,19.31,6.67,32.15,0,15.53-4.03,28.73-12.11,39.6-8.08,10.88-19.88,17.77-35.41,20.66l55.91,92.87h-58.09l-45.97-87.9h-23.92v87.9h-48.46v-219.91ZM742.31,351.4h28.58c4.35,0,8.96-.15,13.83-.47,4.87-.3,9.26-1.24,13.19-2.79,3.93-1.55,7.2-3.98,9.79-7.31,2.58-3.31,3.88-7.96,3.88-13.98,0-5.59-1.14-10.04-3.43-13.35-2.27-3.31-5.17-5.85-8.7-7.61-3.51-1.76-7.56-2.96-12.11-3.58-4.56-.62-9.01-.94-13.36-.94h-31.68v50.01Z"/>
    <path class="cls-1" d="M896.99,260.39h149.4v44.73h-100.94v41h95.36v44.73h-95.36v44.73h106.53v44.73h-154.99v-219.91Z"/>
    <path class="cls-1" d="M1090.8,260.39h48.46v82h94.12v-82h48.46v219.91h-48.46v-95.04h-94.12v95.04h-48.46v-219.91Z"/>
    <path class="cls-1" d="M1398.93,260.39h40.06l95.66,219.91h-54.66l-18.95-46.59h-85.42l-18.33,46.59h-53.42l95.05-219.91ZM1417.56,324.38l-26.71,68.34h53.73l-27.02-68.34Z"/>
    <path class="cls-1" d="M1556.71,260.39h82.01c9.52,0,19.1.68,28.73,2.02,9.63,1.35,18.28,4.03,25.93,8.08,7.66,4.03,13.86,9.68,18.63,16.92,4.76,7.25,7.15,16.89,7.15,28.89s-3.48,22.72-10.41,30.9c-6.94,8.19-16.1,14.03-27.49,17.55v.62c7.25,1.04,13.83,3.06,19.73,6.05,5.9,3.01,10.97,6.84,15.22,11.49,4.25,4.66,7.51,10.1,9.78,16.32,2.27,6.21,3.43,12.84,3.43,19.88,0,11.59-2.49,21.27-7.46,29.03-4.97,7.77-11.39,14.04-19.26,18.79-7.87,4.76-16.72,8.19-26.55,10.25-9.83,2.07-19.63,3.11-29.35,3.11h-90.09v-219.91ZM1605.17,348.29h35.1c3.73,0,7.41-.4,11.03-1.24,3.61-.82,6.88-2.17,9.78-4.04,2.89-1.86,5.23-4.35,6.99-7.44,1.76-3.11,2.64-6.84,2.64-11.19s-.99-8.33-2.96-11.34c-1.97-3-4.5-5.33-7.61-6.99-3.1-1.66-6.62-2.84-10.55-3.58-3.94-.72-7.77-1.09-11.5-1.09h-32.92v46.9ZM1605.17,439.3h43.49c3.73,0,7.51-.42,11.34-1.24,3.83-.83,7.31-2.27,10.4-4.35,3.11-2.07,5.64-4.76,7.61-8.08,1.97-3.31,2.96-7.36,2.96-12.12,0-5.17-1.3-9.37-3.88-12.58-2.59-3.21-5.85-5.64-9.78-7.31-3.94-1.66-8.19-2.79-12.74-3.41-4.56-.62-8.81-.94-12.74-.94h-36.65v50.01Z"/>
  </g>
  <path class="cls-3" d="M123.02,160.83h118.68c16.54,0,32.19,1.51,46.93,4.52,14.72,3.01,27.6,8.21,38.57,15.57,10.98,7.36,19.7,17.3,26.18,29.78,6.46,12.48,9.69,28.2,9.69,47.15s-3.01,34.3-9.03,46.93c-6.02,12.63-14.28,22.71-24.8,30.24-10.54,7.51-23.02,12.85-37.45,16.01-14.45,3.16-30.09,4.74-46.93,4.74h-51.45v124.54h-70.39V160.83ZM193.41,296.2h46.93c6.32,0,12.41-.61,18.29-1.8,5.86-1.21,11.13-3.23,15.79-6.1,4.66-2.86,8.41-6.77,11.27-11.73,2.86-4.96,4.3-11.2,4.3-18.73,0-8.12-1.89-14.67-5.65-19.63-3.76-4.96-8.57-8.79-14.43-11.51-5.88-2.7-12.41-4.42-19.63-5.18-7.22-.75-14.14-1.14-20.77-1.14h-36.1v75.81Z"/>
  <path class="cls-1" d="M378.65,480.3l-69.85-116.02c-5.39,2.1-10.93,4.04-17.01,5.37-14.45,3.16-30.09,4.74-46.93,4.74h-5.98l55.39,105.91h84.38Z"/>
  <g>
    <circle class="cls-1" cx="223.98" cy="69.76" r="69.75"/>
    <path class="cls-2" d="M138.62,139.04S-33.03,74.93,5.69,25.54c38.72-49.39,132.94,113.49,132.94,113.49Z"/>
    <path class="cls-2" d="M309.34,139.04s171.66-64.11,132.94-113.49c-38.72-49.39-132.94,113.49-132.94,113.49Z"/>
  </g>
  <path class="cls-3" d="M620.86,381.83c4.13-3.73,7.96-7.55,11.49-11.49,3.51-3.93,6.57-8.23,9.16-12.89,2.59-4.65,4.6-9.83,6.05-15.53,1.45-5.69,2.17-12.06,2.17-19.1,0-10.97-1.81-20.6-5.43-28.89-3.63-8.28-8.65-15.17-15.07-20.65-6.42-5.49-13.98-9.63-22.67-12.42-8.7-2.79-18.01-4.2-27.96-4.2-10.77,0-20.75,1.4-29.97,4.2-9.21,2.79-17.24,6.99-24.08,12.58-6.82,5.6-12.32,12.59-16.46,20.97-4.15,8.39-6.52,18.28-7.15,29.66l46.6,3.43c.62-7.87,3.36-14.5,8.23-19.88,4.87-5.38,11.65-8.08,20.35-8.08,7.24,0,13.56,2.12,18.95,6.37,5.38,4.25,8.08,10.09,8.08,17.54,0,6.64-2.17,12.42-6.52,17.39-4.35,4.98-8.7,9.43-13.04,13.36l-15.4,13.83,31.78,31.79,20.88-17.97Z"/>
  <polygon class="cls-1" points="642.31 439.3 554.08 439.3 599.98 399.8 568.19 368.02 498.17 430.91 498.17 480.3 642.31 480.3 663.42 459.8 642.31 439.3"/>
</svg>